<?xml version="1.0" standalone="no"?>
<!DOCTYPE svg PUBLIC "-//W3C//DTD SVG 20010904//EN"
 "http://www.w3.org/TR/2001/REC-SVG-20010904/DTD/svg10.dtd">
<svg version="1.0" xmlns="http://www.w3.org/2000/svg"
 width="378.000000pt" height="459.000000pt" viewBox="0 0 378.000000 459.000000"
 preserveAspectRatio="xMidYMid meet">

<g transform="translate(0.000000,459.000000) scale(0.100000,-0.100000)"
fill="#000000" stroke="none">
<path d="M1868 4536 c-3 -14 -2 -27 1 -28 3 -2 5 -83 3 -180 -2 -131 -6 -178
-15 -178 -7 0 -86 25 -177 56 -91 30 -176 58 -190 61 -25 6 -25 6 -7 -15 11
-11 24 -19 31 -16 11 4 155 -46 184 -64 6 -5 14 -27 16 -50 l4 -43 -51 37 -52
36 43 -40 42 -40 -31 -68 c-65 -145 -63 -156 4 -19 l43 89 -1 -50 c-1 -44 -7
-58 -49 -112 -26 -34 -50 -60 -54 -58 -4 2 -15 -11 -24 -30 -10 -19 -14 -34
-10 -34 11 0 16 6 162 173 131 150 136 152 128 47 -3 -44 -1 -60 8 -60 9 0 14
22 16 74 l3 74 66 -76 c83 -97 114 -140 107 -148 -3 -3 -25 4 -48 16 -80 41
-48 15 51 -42 55 -31 99 -51 99 -44 0 6 -4 16 -9 22 -5 5 -26 49 -46 97 -21
48 -40 86 -42 84 -2 -3 8 -30 22 -62 28 -65 29 -69 15 -60 -17 11 -210 227
-210 236 0 11 183 69 215 69 23 0 25 -2 14 -22 -7 -13 -28 -38 -48 -56 -20
-18 9 1 64 44 161 124 162 113 -4 112 -78 -1 -145 3 -150 8 -5 5 -32 70 -61
144 -29 74 -54 136 -55 138 -1 2 -5 -8 -7 -22z m76 -192 c3 -8 2 -12 -4 -9 -6
3 -10 10 -10 16 0 14 7 11 14 -7z m25 -59 l12 -35 102 -1 102 -1 -45 -14 c-69
-22 -140 -29 -140 -14 0 10 -3 10 -15 0 -12 -10 -15 -9 -15 4 0 10 -5 27 -12
39 -13 25 -18 57 -8 57 3 0 12 -16 19 -35z"/>
<path d="M2028 4223 c7 -3 16 -2 19 1 4 3 -2 6 -13 5 -11 0 -14 -3 -6 -6z"/>
<path d="M2046 4057 c3 -10 9 -15 12 -12 3 3 0 11 -7 18 -10 9 -11 8 -5 -6z"/>
<path d="M1479 3670 c-18 -32 -28 -40 -51 -40 -43 0 -43 0 -40 18 2 13 0 12
-9 -3 -24 -41 -56 -68 -108 -91 -29 -13 -55 -24 -57 -24 -2 0 -4 14 -4 30 0
23 -4 30 -20 30 -16 0 -20 -7 -20 -33 0 -22 -8 -41 -21 -53 -26 -24 -43 -54
-30 -54 5 0 22 11 38 24 35 30 234 83 220 59 -3 -5 7 -17 22 -27 l26 -20 -19
22 c-24 27 -10 28 24 2 14 -11 31 -20 39 -20 23 0 81 -23 81 -32 0 -4 -12 -10
-27 -14 -44 -9 -50 -12 -25 -13 24 -1 132 57 132 71 0 5 -9 8 -19 8 -11 0 -27
3 -35 6 -12 5 -15 2 -10 -10 8 -21 -7 -20 -73 3 -91 31 -114 67 -38 59 25 -3
48 -2 51 3 3 5 17 9 31 9 25 0 25 -1 10 -18 -26 -28 -20 -36 9 -13 32 25 43
26 80 6 16 -8 36 -15 45 -15 8 0 24 -6 34 -14 15 -11 24 -11 40 -2 11 6 21 12
23 13 2 1 -6 11 -17 22 -32 32 -26 55 26 95 42 33 44 36 21 36 -16 0 -38 -13
-59 -35 -35 -36 -53 -43 -64 -25 -4 6 10 17 29 25 48 20 47 38 -1 29 -49 -9
-74 -21 -98 -51 -12 -14 -35 -26 -60 -30 -22 -3 -48 -13 -57 -21 -12 -10 -18
-11 -18 -3 0 6 7 14 15 17 8 4 15 11 15 17 0 6 10 22 22 36 13 14 6 10 -15 -8
-39 -37 -45 -33 -24 12 11 25 22 31 54 30 6 0 14 6 17 13 6 16 -3 18 -24 4 -9
-5 -19 -5 -26 1 -9 7 -19 -1 -35 -31z m229 -87 c2 -8 -6 -13 -22 -13 -25 0
-33 10 -19 24 10 10 36 3 41 -11z"/>
<path d="M2138 3678 c9 -16 30 -43 45 -60 22 -24 25 -33 15 -39 -7 -5 12 -6
42 -2 l55 6 -19 -22 c-18 -20 -74 -50 -127 -66 -19 -6 -21 -4 -16 14 3 13 1
19 -6 14 -5 -3 -24 -9 -41 -12 l-30 -7 39 -23 40 -23 40 20 c41 21 92 42 100
42 12 0 3 -17 -21 -44 -21 -22 -33 -27 -60 -24 -18 2 -30 0 -28 -4 6 -10 46
-11 69 -2 8 4 30 27 47 53 21 30 25 41 12 31 -18 -14 -18 -14 -5 3 9 11 21 15
34 11 13 -4 17 -2 13 5 -4 6 -1 9 6 7 7 -2 48 -10 90 -16 51 -9 89 -21 110
-36 54 -40 66 -28 20 19 -28 29 -42 51 -42 70 0 21 -5 27 -21 27 -18 0 -20 -4
-14 -30 8 -35 5 -36 -69 -10 -59 20 -70 28 -99 70 -12 18 -17 20 -17 8 0 -28
-59 -17 -85 16 -16 21 -33 29 -59 31 l-35 2 17 -29z m60 -20 c12 -18 20 -34
18 -35 -8 -8 -35 11 -55 37 -21 29 -21 30 -2 30 11 0 28 -14 39 -32z"/>
<path d="M1881 3664 c7 -8 25 -22 41 -30 35 -18 38 -57 6 -91 l-21 -23 21 0
c12 0 22 -4 22 -9 0 -5 17 -1 38 9 109 55 131 60 157 34 9 -9 19 -13 23 -9 4
3 -1 11 -11 16 -23 13 -22 32 2 24 11 -3 22 -1 26 5 4 6 -4 10 -18 10 -36 0
-85 19 -91 36 -7 19 -67 44 -106 44 -40 0 -38 -15 3 -26 17 -6 32 -16 32 -24
0 -25 -21 -20 -59 15 -39 36 -92 52 -65 19z m149 -84 c0 -5 -9 -10 -20 -10
-11 0 -20 5 -20 10 0 6 9 10 20 10 11 0 20 -4 20 -10z"/>
<path d="M2584 3630 c4 -14 11 -41 15 -60 4 -19 13 -45 19 -57 8 -15 9 -24 1
-28 -6 -5 -4 -12 8 -21 16 -12 14 -13 -24 -14 -49 0 -92 14 -108 37 -8 10 -19
13 -33 9 -33 -11 -28 -36 7 -36 36 0 61 -9 61 -22 0 -5 -26 -9 -57 -8 -76 2
-83 1 -53 -12 14 -5 73 -9 132 -9 59 1 115 -2 125 -8 10 -5 30 -14 46 -20 35
-14 34 -24 -3 -38 -35 -13 -38 -35 -10 -63 11 -11 20 -28 20 -39 0 -13 7 -18
25 -18 16 0 22 4 17 11 -10 16 -11 66 -1 66 20 0 119 -50 119 -60 0 -6 8 -10
18 -9 29 3 37 0 60 -21 33 -31 29 -54 -7 -47 -39 8 -42 2 -23 -44 13 -35 24
-44 81 -70 36 -17 92 -36 124 -44 58 -14 87 -29 87 -47 0 -6 -13 -7 -31 -3
-24 5 -30 4 -27 -6 3 -8 21 -17 41 -20 44 -7 63 -22 69 -54 7 -34 1 -37 -40
-19 -41 17 -47 14 -38 -18 10 -38 29 -55 101 -90 74 -36 98 -68 51 -68 -22 0
-26 -5 -26 -28 0 -16 9 -37 20 -47 28 -25 25 -37 -7 -33 -17 2 -32 12 -40 28
-12 23 -13 23 -13 4 0 -27 43 -90 60 -86 15 3 50 -26 50 -43 0 -6 7 -20 16
-31 15 -18 15 -18 9 4 -5 18 -2 22 15 22 11 0 24 -8 27 -17 4 -10 14 -23 22
-29 13 -10 13 -14 2 -28 -13 -15 -15 -15 -33 4 -25 27 -30 25 -16 -5 13 -30
72 -59 117 -58 43 1 53 13 49 54 -3 29 -8 35 -33 39 -24 5 -30 10 -29 30 1 14
-5 29 -12 33 -21 12 -17 33 12 64 14 15 32 39 39 53 14 29 29 100 20 100 -14
0 -81 -32 -97 -47 -23 -21 -24 -40 0 -22 15 13 16 12 3 -3 -11 -14 -11 -18 -1
-18 8 0 10 -3 7 -6 -4 -4 -13 -1 -22 6 -8 7 -15 9 -15 4 0 -5 -5 -2 -10 6 -14
22 -12 56 5 70 22 18 19 50 -5 50 -13 0 -20 -7 -20 -18 0 -10 -6 -26 -13 -36
-12 -17 -14 -17 -27 -1 -19 23 -16 113 5 168 9 25 15 51 12 59 -5 16 10 48 23
48 6 0 10 -33 10 -72 1 -68 2 -71 15 -48 15 27 20 127 7 148 -7 9 -13 8 -26
-7 -10 -11 -23 -18 -30 -15 -18 7 -41 -24 -61 -81 -23 -61 -24 -63 -35 -45
-18 28 -11 92 11 117 20 21 21 23 4 29 -10 4 -21 1 -27 -7 -8 -11 -9 -10 -4 4
3 11 0 17 -10 17 -20 0 -29 -29 -16 -51 15 -23 15 -29 2 -29 -5 0 -10 5 -10
10 0 20 -42 68 -55 64 -7 -3 -15 6 -19 22 -9 33 -1 42 24 26 23 -14 22 -17 20
73 -1 46 3 67 18 85 16 21 19 40 17 116 -1 91 -2 92 -35 123 -19 17 -45 31
-58 31 -29 0 -63 18 -186 98 -123 79 -161 88 -232 48 -25 -14 -53 -26 -61 -26
-10 0 -13 -6 -9 -15 4 -11 -4 -9 -27 7 -17 13 -39 24 -47 26 -8 2 -24 11 -34
20 -18 16 -19 16 -12 -8z m251 -9 c6 -10 -76 -71 -95 -71 -25 0 -3 36 35 57
45 25 51 27 60 14z m-209 -28 c-7 -7 -26 7 -26 19 0 6 6 6 15 -2 9 -7 13 -15
11 -17z m264 -20 c0 -4 -9 -17 -21 -29 -32 -34 -27 -84 15 -164 21 -41 32 -72
26 -75 -7 -4 -6 -13 0 -26 13 -23 10 -23 -38 -3 -20 9 -32 18 -25 21 7 3 4 18
-12 46 -13 23 -26 57 -30 75 -5 23 -12 32 -26 32 -18 0 -23 -10 -20 -37 1 -7
-2 -13 -7 -13 -18 0 -32 26 -32 60 1 28 8 40 38 63 25 19 44 26 59 22 16 -4
25 1 33 15 10 19 40 29 40 13z m46 -37 c8 -8 11 -22 8 -30 -5 -13 1 -16 26
-16 36 0 32 -13 -12 -36 -35 -18 -51 -6 -45 34 4 18 2 20 -10 10 -11 -9 -16
-9 -24 3 -13 20 -11 27 9 38 23 14 31 13 48 -3z m-52 -55 c3 -4 -1 -16 -8 -26
-13 -17 -13 -17 -13 8 0 26 10 36 21 18z m171 -11 c3 -5 12 -7 20 -3 27 10 15
-5 -20 -26 l-35 -20 0 23 c0 33 21 49 35 26z m158 -12 c34 -18 46 -40 47 -84
0 -93 -33 -128 -132 -140 -45 -5 -57 -3 -80 15 -23 19 -27 29 -26 74 0 66 22
105 73 128 47 21 88 23 118 7z m-229 -56 c2 -4 1 -14 -4 -22 -7 -11 -12 -12
-21 -3 -6 6 -8 16 -5 22 8 13 23 14 30 3z m-174 -57 c0 -8 -4 -15 -10 -15 -5
0 -10 7 -10 15 0 8 5 15 10 15 6 0 10 -7 10 -15z m190 -49 c0 -22 -11 -46 -21
-46 -5 0 -9 14 -9 30 0 20 5 30 15 30 8 0 15 -6 15 -14z m74 -93 c7 -16 17
-43 21 -62 6 -27 4 -32 -6 -26 -39 22 -59 50 -59 82 0 41 24 44 44 6z m106 -3
c0 -16 -7 -20 -35 -20 -53 0 -33 34 23 39 6 0 12 -8 12 -19z m44 -45 c8 -21
-3 -45 -20 -45 -9 0 -14 11 -14 30 0 32 23 42 34 15z m-54 -40 c0 -30 -25 -34
-40 -6 -14 28 -13 31 15 31 20 0 25 -5 25 -25z m-170 -25 c0 -5 -4 -10 -10
-10 -5 0 -10 5 -10 10 0 6 5 10 10 10 6 0 10 -4 10 -10z m50 -20 c0 -5 -2 -10
-4 -10 -3 0 -8 5 -11 10 -3 6 -1 10 4 10 6 0 11 -4 11 -10z m360 -184 c-12
-36 -30 -49 -30 -21 0 18 31 68 37 61 3 -3 0 -21 -7 -40z m-10 -257 c0 -6 -4
-7 -10 -4 -5 3 -10 11 -10 16 0 6 5 7 10 4 6 -3 10 -11 10 -16z m58 -129 c3
-8 -5 -7 -26 6 -17 10 -28 22 -26 26 7 11 46 -13 52 -32z"/>
<path d="M3115 3396 c-45 -20 -85 -52 -74 -59 2 -1 14 -10 26 -21 21 -17 21
-17 16 3 -7 28 13 51 46 51 32 0 52 -17 44 -36 -7 -20 11 -17 30 4 23 25 21
59 -2 72 -26 14 -29 13 -86 -14z"/>
<path d="M1091 3606 c-14 -14 -30 -26 -36 -26 -7 0 -24 -9 -39 -21 -19 -15
-24 -17 -20 -5 4 12 2 15 -9 10 -8 -3 -33 4 -56 15 -83 43 -128 29 -281 -85
-60 -45 -131 -84 -153 -84 -7 0 -27 -15 -45 -32 -31 -33 -31 -33 -27 -126 3
-73 7 -98 22 -114 13 -14 19 -38 20 -82 1 -33 2 -64 3 -69 0 -4 11 -5 25 -1
18 5 25 2 25 -9 0 -27 -11 -46 -25 -41 -7 3 -15 -3 -19 -13 -13 -33 -31 -63
-38 -63 -11 0 -10 7 4 29 18 30 3 54 -30 46 -43 -10 -50 -24 -23 -46 19 -16
24 -28 23 -60 -1 -22 -6 -48 -11 -57 -8 -15 -11 -14 -19 8 -33 86 -45 109 -59
114 -23 9 -34 -3 -23 -23 5 -10 6 -22 2 -26 -4 -5 -2 -5 4 -2 14 8 29 -9 38
-43 7 -24 6 -24 -19 5 l-26 30 21 -54 c26 -66 25 -164 -1 -169 -11 -2 -20 8
-27 27 -11 32 -42 43 -42 16 0 -9 9 -29 21 -44 18 -24 19 -32 9 -51 l-12 -23
-22 26 c-23 27 -46 41 -87 51 -26 6 -27 5 -19 -27 10 -47 27 -77 69 -120 35
-37 36 -39 16 -53 -12 -9 -19 -24 -17 -39 3 -19 -2 -24 -27 -30 -37 -8 -48
-37 -27 -70 11 -17 25 -25 44 -25 36 1 91 30 109 56 12 19 12 22 -2 27 -10 5
-15 0 -15 -14 0 -12 -5 -19 -12 -17 -15 5 -24 48 -10 48 5 0 12 9 15 20 3 12
14 20 27 20 17 0 21 -4 17 -20 -9 -35 3 -22 23 24 13 31 25 45 41 48 12 2 30
14 40 28 22 31 35 80 21 80 -6 0 -12 -10 -14 -22 -2 -18 -11 -24 -38 -26 l-35
-4 25 29 c32 35 31 88 -1 80 -10 -3 -22 -1 -25 5 -9 14 17 37 83 72 59 32 100
83 89 111 -5 13 -10 13 -41 -2 -41 -20 -52 -13 -39 25 7 21 20 30 57 41 26 8
47 20 47 28 0 16 -22 17 -38 1 -16 -16 -29 -1 -16 20 6 9 33 22 59 29 54 14
188 77 203 96 8 11 18 43 23 72 0 6 -13 9 -30 7 -40 -4 -41 18 -4 52 19 18 34
24 50 19 16 -3 23 -1 21 7 -3 10 93 70 112 70 5 0 7 -17 6 -38 -2 -35 0 -38
20 -34 16 3 20 9 17 23 -3 10 0 19 6 19 6 0 16 11 23 25 13 29 -3 55 -34 55
-22 0 -20 20 3 30 8 4 28 14 44 23 20 10 68 17 135 20 58 3 113 8 123 12 34
14 16 21 -44 15 -33 -3 -62 -3 -65 1 -6 10 22 19 57 19 22 0 29 5 29 20 0 16
-7 20 -30 20 -18 0 -29 -5 -27 -12 1 -7 -14 -18 -33 -24 -40 -15 -123 -19
-102 -5 8 4 12 14 11 22 -1 8 3 27 9 42 7 16 12 40 12 53 0 14 5 34 11 45 17
33 5 42 -20 15z m-168 -41 c19 -8 37 -21 41 -30 10 -28 -21 -27 -63 1 -63 41
-50 59 22 29z m-73 -55 c8 -15 15 -18 28 -11 20 10 38 4 75 -25 31 -25 37 -82
11 -108 -21 -22 -23 -20 -21 12 2 21 -2 27 -18 27 -15 0 -21 -9 -26 -35 -3
-19 -15 -54 -26 -77 -14 -28 -17 -43 -10 -43 11 -1 -51 -39 -63 -40 -17 -1 -1
81 24 122 40 68 40 127 2 167 -28 29 -29 31 -8 31 12 0 26 -9 32 -20z m-35
-23 c19 -15 13 -37 -11 -37 -8 0 -14 -10 -14 -25 0 -33 -21 -40 -59 -20 -40
20 -40 35 0 35 24 0 30 4 25 16 -6 16 12 43 30 44 5 0 18 -6 29 -13z m-133
-82 c14 -30 7 -40 -19 -26 -10 5 -27 13 -38 17 -19 7 -19 8 3 11 12 3 22 9 22
14 0 19 21 8 32 -16z m-65 -20 c44 -19 71 -66 71 -126 1 -40 -3 -52 -25 -69
-52 -41 -168 -18 -197 39 -22 42 -21 123 2 144 42 38 79 41 149 12z m133 -46
c0 -24 -23 -21 -28 4 -2 10 3 17 12 17 10 0 16 -9 16 -21z m170 -40 c0 -5 -4
-9 -10 -9 -5 0 -10 7 -10 16 0 8 5 12 10 9 6 -3 10 -10 10 -16z m-180 -75 c0
-13 -4 -24 -9 -24 -13 0 -24 37 -16 50 10 16 25 1 25 -26z m-286 -40 c3 -8 2
-12 -4 -9 -6 3 -10 10 -10 16 0 14 7 11 14 -7z m233 -35 c1 -25 -33 -85 -54
-94 -19 -7 -16 33 7 83 21 47 44 52 47 11z m-112 -1 c32 -14 32 -24 0 -30 -26
-6 -51 14 -40 32 8 13 8 13 40 -2z m-45 -78 c0 -19 -5 -30 -14 -30 -17 0 -28
24 -20 45 11 27 34 17 34 -15z m240 16 c0 -3 -4 -8 -10 -11 -5 -3 -10 -1 -10
4 0 6 5 11 10 11 6 0 10 -2 10 -4z m-170 -15 c0 -5 -9 -19 -19 -32 -18 -22
-20 -22 -26 -6 -10 25 1 47 25 47 11 0 20 -4 20 -9z m132 -43 c-7 -7 -12 -8
-12 -2 0 14 12 26 19 19 2 -3 -1 -11 -7 -17z m-557 -438 c3 -5 -1 -10 -9 -10
-9 0 -16 5 -16 10 0 6 4 10 9 10 6 0 13 -4 16 -10z m185 -134 c0 -6 -66 -46
-75 -46 -5 0 2 11 15 25 20 21 60 35 60 21z"/>
<path d="M494 3336 c-10 -27 1 -59 26 -75 23 -15 24 -15 17 3 -10 25 10 46 43
46 29 0 45 -13 51 -42 4 -14 6 -15 23 -3 24 18 15 30 -44 60 -55 28 -108 33
-116 11z"/>
<path d="M1812 3510 c3 -22 0 -25 -25 -22 -44 5 -23 -14 25 -23 58 -9 95 -8
116 5 14 9 12 10 -13 8 -26 -3 -30 0 -29 21 1 21 -1 22 -11 7 -16 -21 -20 -20
-45 6 l-21 22 3 -24z"/>
<path d="M1442 3454 c10 -10 20 -16 22 -13 3 3 -5 11 -17 18 -21 13 -21 12 -5
-5z"/>
<path d="M1631 3264 c-261 -41 -518 -168 -712 -352 -192 -182 -305 -376 -377
-642 -23 -86 -25 -114 -26 -290 -1 -213 8 -274 66 -440 100 -285 325 -555 585
-702 70 -40 72 -47 10 -36 -29 5 -92 13 -142 16 l-89 7 -26 38 c-14 20 -40 46
-58 57 l-34 21 -5 -21 c-7 -25 -24 -26 -53 -2 -24 19 -20 42 6 42 8 0 14 7 14
15 0 23 -34 18 -45 -8 -8 -18 -17 -22 -50 -20 -58 4 -69 21 -76 121 -10 138
-54 218 -98 178 -25 -23 -62 -19 -93 9 -33 28 -33 32 -8 65 19 26 12 50 -15
50 -19 0 -24 22 -9 45 10 17 22 98 24 158 0 31 20 8 20 -24 0 -18 4 -28 10
-24 16 10 12 47 -10 90 -11 22 -20 49 -20 60 0 26 -27 65 -44 65 -9 0 -6 -14
11 -47 20 -40 23 -57 18 -109 -3 -34 -14 -92 -26 -129 -16 -54 -23 -64 -34
-55 -20 16 -27 62 -16 93 6 15 25 40 43 57 l33 29 -28 1 c-19 0 -31 7 -39 25
-6 14 -20 25 -31 25 -16 0 -17 3 -7 15 7 8 19 15 26 15 25 0 15 31 -20 66 -26
26 -42 34 -71 34 -62 0 -75 -13 -75 -74 0 -53 0 -53 40 -69 48 -18 52 -37 9
-37 -26 0 -29 -3 -20 -14 6 -8 25 -16 41 -18 25 -4 30 -1 35 24 10 42 24 34
23 -13 0 -41 -1 -41 -34 -37 -38 4 -44 -6 -14 -24 11 -7 20 -20 20 -28 0 -8
14 -23 30 -32 18 -10 30 -25 30 -38 0 -23 -5 -22 -58 18 -18 13 -31 30 -28 37
2 7 -1 18 -7 24 -16 16 -47 13 -47 -5 0 -8 4 -13 8 -10 5 3 25 -15 46 -39 40
-48 36 -58 -9 -23 -26 21 -27 21 -17 1 6 -11 21 -27 34 -35 29 -19 118 -49
128 -43 8 5 6 -53 -3 -62 -4 -3 -18 -1 -32 5 -34 16 -45 15 -45 -2 0 -9 17
-16 50 -21 37 -5 55 -14 70 -33 18 -23 19 -27 6 -40 -12 -13 -18 -13 -30 -2
-14 11 -16 8 -16 -24 0 -30 3 -35 21 -33 22 2 49 -27 36 -40 -5 -4 -15 -3 -24
3 -12 8 -22 4 -40 -13 -12 -13 -23 -26 -23 -28 0 -3 22 -28 50 -57 l50 -52 98
0 c111 -1 156 -19 150 -59 -3 -19 -9 -22 -43 -20 -37 2 -39 1 -21 -12 11 -8
32 -15 47 -15 15 0 31 -4 34 -10 12 -20 25 -10 19 14 -15 61 24 53 73 -16 29
-41 31 -46 15 -59 -15 -13 -19 -12 -37 6 -11 11 -17 16 -12 11 14 -20 7 -54
-13 -59 -22 -6 -28 -45 -7 -52 28 -9 137 -15 135 -8 -4 11 5 13 73 13 70 0 79
-21 13 -30 -34 -5 -36 -7 -16 -14 12 -4 30 -22 39 -39 16 -30 18 -30 21 -10 4
26 28 29 56 8 27 -21 59 -19 90 6 21 17 26 29 26 65 0 65 -35 98 -112 107 -70
9 -88 15 -88 33 0 31 178 9 225 -27 36 -29 36 -112 -1 -179 -29 -54 -56 -70
-116 -70 -23 0 -38 -3 -34 -7 4 -5 44 -8 89 -9 45 0 96 -6 112 -12 40 -14 184
-40 265 -47 102 -10 110 -12 110 -39 0 -29 -28 -56 -39 -37 -10 15 -27 -3 -35
-39 -14 -58 50 -67 74 -11 10 24 105 101 125 101 4 0 5 -15 3 -33 -2 -19 -8
-31 -15 -29 -7 1 -13 -7 -13 -18 0 -11 7 -20 15 -20 11 0 14 -17 12 -89 l-2
-89 35 -5 c40 -5 60 7 42 25 -7 7 -9 36 -5 87 5 63 3 79 -11 90 -38 31 -2 117
51 123 19 2 29 10 33 28 5 23 11 26 40 22 19 -3 10 -32 -10 -32 -11 0 -20 -4
-20 -10 0 -5 10 -10 23 -10 56 -1 101 -88 62 -120 -20 -17 -21 -74 0 -67 21 9
31 -14 13 -27 -11 -8 -14 -21 -11 -39 3 -15 0 -34 -7 -42 -19 -23 -1 -35 40
-29 l35 6 1 76 c1 43 5 93 9 113 5 26 3 38 -9 48 -15 13 -22 41 -10 41 20 0
113 -68 132 -97 17 -25 29 -33 45 -31 28 4 34 40 13 72 -19 29 -56 41 -56 18
0 -14 -2 -14 -17 2 -13 13 -15 20 -5 23 6 3 12 11 12 18 0 16 52 35 99 35 20
0 61 7 91 16 30 8 82 21 115 28 33 7 70 18 82 24 12 7 62 12 117 12 52 0 98 4
101 10 4 6 -12 10 -42 10 -59 0 -63 3 -102 64 -37 60 -44 141 -13 169 29 27
90 48 156 54 98 9 98 -26 1 -42 -65 -11 -95 -26 -110 -56 -34 -65 -2 -139 59
-139 18 0 41 7 52 15 26 20 54 19 55 -2 0 -16 1 -16 12 1 7 11 23 31 37 44
l25 24 -38 -7 c-33 -7 -37 -5 -37 14 0 19 5 21 73 21 68 -1 71 -2 47 -15 l-25
-15 30 6 c17 3 43 10 59 15 16 5 40 9 53 9 33 0 42 30 15 48 -13 9 -22 25 -22
40 0 24 -1 25 -14 7 -13 -18 -15 -18 -30 -2 -16 15 -14 20 17 64 41 59 72 70
65 24 -4 -30 5 -41 17 -21 3 5 17 10 31 10 29 0 64 16 64 30 0 6 -11 5 -27 -1
-34 -13 -53 -5 -53 21 0 32 56 60 120 60 80 1 142 15 153 35 5 10 25 35 45 57
19 21 33 40 31 41 -2 1 -13 7 -24 13 -17 10 -19 20 -16 70 3 52 1 57 -13 45
-9 -7 -23 -11 -31 -7 -40 15 8 70 69 79 22 4 44 11 49 16 19 19 -3 25 -39 12
-30 -11 -38 -11 -45 0 -13 21 12 50 57 68 44 17 71 36 93 64 12 16 9 15 -23
-4 l-37 -22 38 51 c25 34 40 47 45 39 5 -8 8 -6 8 6 0 14 -6 18 -27 15 -22 -2
-28 -9 -29 -28 -1 -23 -56 -80 -77 -80 -15 0 4 45 29 65 13 12 24 25 24 31 0
5 9 17 20 27 29 25 25 37 -10 24 -35 -13 -35 -13 -44 37 -6 29 -4 37 6 34 7
-3 14 -14 16 -26 4 -26 38 -30 68 -7 18 14 18 14 -8 15 -41 0 -38 33 5 45 30
9 32 13 35 61 4 61 -9 75 -69 76 -37 0 -48 -5 -76 -36 -39 -43 -42 -62 -8 -70
14 -4 25 -13 25 -20 0 -9 -7 -12 -20 -9 -15 4 -20 0 -20 -16 0 -26 -47 -48
-64 -31 -17 17 -10 86 12 124 23 39 14 48 -18 16 -11 -11 -20 -33 -20 -49 0
-16 -7 -42 -15 -57 -17 -33 -20 -100 -5 -109 6 -4 10 11 10 37 1 56 15 32 24
-42 4 -30 14 -69 23 -87 16 -34 11 -53 -12 -53 -25 0 -27 -20 -4 -51 l22 -31
-32 -29 c-36 -33 -66 -37 -93 -12 -17 15 -19 15 -37 -1 -32 -29 -51 -102 -51
-197 0 -98 -6 -108 -68 -116 -33 -4 -39 -2 -50 21 -13 29 -37 34 -46 11 -4
-11 3 -19 21 -26 l26 -10 -23 -24 c-28 -30 -40 -31 -47 -5 -7 25 -8 25 -48 0
-18 -11 -38 -34 -45 -50 -18 -43 -47 -60 -100 -60 -48 0 -110 -14 -147 -32
-17 -8 -29 -8 -48 0 -21 10 -33 8 -70 -9 -64 -30 -85 -69 -85 -158 0 -55 -3
-71 -15 -71 -7 0 -18 -7 -23 -16 -6 -11 -14 -14 -23 -8 -24 15 -81 -1 -122
-35 -13 -11 -26 -12 -55 -5 l-37 9 0 64 c0 74 -6 79 -67 58 -66 -24 -101 -27
-128 -12 l-25 13 25 5 c14 3 65 13 114 22 488 91 899 475 1028 962 30 112 32
127 32 313 1 214 -8 275 -66 440 -112 316 -348 581 -658 738 -240 121 -545
168 -819 126z m-14 -196 c-3 -8 -6 -5 -6 6 -1 11 2 17 5 13 3 -3 4 -12 1 -19z
m64 -39 l-10 -24 0 26 c-1 14 2 29 6 33 12 12 14 -9 4 -35z m216 -59 c9 0 22
-8 29 -17 10 -13 12 -13 9 -3 -4 11 3 15 30 16 19 0 35 -3 35 -8 0 -4 -4 -8
-10 -8 -5 0 -10 -4 -10 -10 0 -5 7 -10 16 -10 9 0 12 -5 8 -12 -6 -10 -4 -10
8 0 17 14 51 6 41 -11 -4 -6 -1 -7 6 -2 9 5 5 15 -14 35 -24 25 -26 32 -16 57
l11 28 -6 -32 c-6 -37 -2 -41 85 -63 60 -15 66 -19 63 -40 -4 -21 -2 -22 12
-11 11 9 14 21 10 35 -6 20 -6 20 13 -1 11 -13 29 -23 39 -23 14 0 15 -3 6
-12 -9 -9 -15 -9 -24 0 -15 15 -28 16 -28 2 0 -5 7 -10 15 -10 8 0 15 -8 16
-17 0 -11 3 -13 6 -5 2 6 14 12 24 12 11 0 17 -4 14 -10 -9 -14 19 -12 33 2 7
7 12 9 12 4 0 -4 -7 -14 -15 -23 -22 -21 -9 -30 13 -10 19 17 57 24 48 8 -3
-4 6 -13 19 -19 21 -10 25 -9 25 6 0 15 2 15 10 2 5 -8 10 -19 10 -24 0 -12
-52 3 -73 22 -13 12 -20 13 -29 4 -8 -8 -7 -13 8 -17 57 -19 68 -26 53 -36
-10 -8 -8 -9 10 -4 17 5 22 4 16 -5 -5 -8 -4 -11 2 -7 6 4 21 -2 33 -13 13
-11 26 -18 29 -15 3 3 -8 17 -24 30 -17 13 -25 24 -20 24 17 0 55 -36 55 -53
0 -8 8 -20 18 -25 9 -6 12 -11 5 -11 -7 0 -10 -7 -7 -15 5 -11 11 -12 24 -5
22 12 30 13 29 3 -5 -32 3 -53 20 -53 12 0 23 -11 31 -32 l12 -33 14 35 c12
30 14 31 11 8 -3 -16 1 -26 7 -25 6 1 12 -8 14 -20 2 -13 -1 -23 -7 -23 -6 0
-11 5 -11 11 0 5 -5 7 -12 3 -9 -6 -9 -9 -1 -11 7 -3 10 -10 7 -18 -4 -9 3
-13 26 -11 18 1 29 -2 27 -8 -2 -6 2 -27 10 -46 7 -19 11 -25 9 -12 -2 12 -1
20 4 17 4 -3 11 -21 15 -41 3 -20 13 -43 21 -51 8 -8 11 -20 7 -26 -4 -7 0 -7
9 1 10 8 14 21 11 30 -3 9 -2 13 2 9 5 -4 8 -24 7 -43 -2 -20 2 -42 8 -50 7
-7 9 -18 6 -23 -4 -6 0 -25 7 -43 8 -18 12 -39 9 -47 -3 -8 1 -12 9 -9 7 2 16
15 20 29 6 21 7 20 8 -9 1 -19 -3 -31 -8 -27 -6 3 -15 -3 -21 -14 -6 -13 -7
-22 0 -26 5 -3 9 -27 10 -53 0 -26 1 -63 2 -82 2 -19 -1 -50 -6 -67 -5 -21 -4
-33 2 -33 6 0 13 8 15 18 4 15 5 15 6 0 0 -9 -3 -20 -9 -23 -5 -3 -10 -13 -10
-21 0 -8 5 -12 10 -9 7 4 8 -8 4 -37 -8 -52 -10 -54 -27 -39 -11 9 -14 6 -14
-16 -1 -32 -5 -53 -16 -70 -11 -18 1 -33 21 -27 15 5 14 4 -1 -6 -10 -7 -21
-9 -25 -6 -10 11 -33 -56 -27 -78 5 -17 4 -18 -5 -6 -9 12 -10 12 -6 -5 4 -14
-1 -25 -14 -35 -27 -19 -25 -25 7 -28 44 -3 40 -12 -6 -12 -29 0 -40 -4 -35
-12 4 -6 0 -16 -8 -22 -8 -6 -20 -22 -27 -34 -7 -13 -15 -21 -18 -19 -6 7 16
50 31 59 6 4 11 11 11 15 0 17 28 73 36 73 5 0 8 3 7 8 -1 4 12 50 29 102 42
128 53 205 48 334 -4 81 -2 112 8 119 8 6 7 7 -5 3 -15 -4 -18 1 -18 29 0 18
-5 37 -11 40 -6 4 -8 12 -6 19 3 6 -4 27 -15 46 -10 19 -16 26 -13 15 4 -11
14 -56 22 -100 19 -100 13 -341 -12 -427 -129 -465 -565 -763 -1034 -709 -144
17 -324 78 -396 135 -18 15 -5 16 168 15 157 -2 192 -5 210 -18 27 -21 73 -41
92 -41 7 0 27 11 43 25 30 25 31 25 236 25 l206 0 0 359 c0 386 2 371 -49 371
-10 0 -56 41 -102 92 -46 51 -76 89 -66 85 70 -26 87 -16 36 22 -17 13 -29 25
-26 27 3 3 54 -7 115 -21 184 -42 188 -29 12 46 l-105 44 48 3 c53 3 61 16 20
30 -41 14 -22 18 201 36 189 16 216 20 205 30 -2 3 -107 8 -231 12 -217 7
-261 14 -183 28 44 9 46 26 3 27 -28 0 -17 8 77 56 71 37 103 58 92 61 -10 2
-31 -1 -45 -7 -15 -5 -65 -20 -112 -32 -47 -12 -93 -26 -102 -31 -30 -15 -20
4 25 50 42 44 42 44 13 38 l-29 -7 43 53 c24 29 57 68 74 85 55 60 18 45 -90
-36 -59 -45 -109 -79 -112 -76 -2 2 5 20 17 40 30 51 26 61 -10 30 -17 -14
-33 -24 -35 -22 -2 2 14 56 35 120 21 64 35 117 30 117 -5 0 -41 -56 -81 -125
-40 -68 -77 -125 -81 -125 -5 0 -8 12 -7 28 5 67 0 117 -10 102 -5 -8 -10 -26
-11 -40 l-1 -25 -8 25 c-5 14 -14 71 -20 127 -12 103 -30 131 -30 47 0 -25 4
-43 9 -40 9 6 30 -137 32 -210 l1 -39 13 40 13 40 1 -57 c1 -57 -16 -88 -26
-49 -5 20 -7 20 -18 5 -22 -31 -36 38 -31 156 4 83 3 91 -3 38 -4 -38 -10 -71
-14 -74 -3 -3 -11 12 -18 35 -19 63 -32 50 -24 -24 3 -36 3 -65 -2 -65 -4 0
-30 37 -57 81 -26 44 -50 78 -53 76 -2 -3 24 -50 59 -105 l63 -101 5 57 5 57
18 -60 c22 -73 22 -80 -2 -80 -10 -1 -26 -7 -35 -14 -15 -12 -19 -12 -32 1
-20 20 -96 228 -90 245 6 14 -24 73 -37 73 -10 0 -6 -12 39 -140 19 -52 34
-99 34 -105 0 -5 -18 9 -40 30 -43 42 -52 35 -20 -17 11 -18 20 -36 20 -40 0
-5 -48 26 -106 68 -58 41 -110 74 -114 72 -5 -2 29 -46 75 -98 46 -52 84 -98
84 -102 1 -4 -15 0 -34 9 -48 23 -56 9 -14 -28 24 -22 28 -29 14 -25 -158 40
-229 55 -234 50 -3 -4 -1 -9 4 -11 6 -2 55 -26 110 -53 91 -45 96 -50 58 -45
-48 6 -59 -10 -18 -25 14 -5 25 -11 25 -13 0 -3 -101 -10 -225 -17 -307 -18
-301 -29 25 -50 91 -6 188 -13 215 -17 l50 -6 -63 -19 c-66 -20 -77 -45 -16
-35 19 3 34 4 34 3 0 -2 -45 -25 -100 -51 -119 -57 -135 -84 -32 -54 37 11 99
28 137 39 l70 19 -45 -39 c-25 -22 -48 -40 -52 -40 -5 0 -8 -7 -8 -15 0 -14 3
-14 30 0 45 23 45 19 0 -35 -30 -36 -49 -50 -67 -50 -15 0 -41 -11 -59 -25
-18 -14 -40 -25 -49 -25 -8 0 -18 -6 -21 -13 -3 -8 -1 -164 4 -348 5 -184 6
-337 2 -341 -16 -19 -210 174 -283 282 -10 14 -21 25 -25 25 -4 0 -7 5 -6 10
1 6 -5 16 -13 24 -12 10 -13 8 -7 -16 8 -34 23 -55 35 -47 5 3 9 2 9 -3 0 -4
14 -24 30 -43 16 -19 30 -39 30 -44 0 -5 -3 -6 -7 -3 -3 4 -13 1 -22 -6 -14
-10 -14 -10 -4 4 10 12 9 18 -7 29 -11 8 -20 22 -20 32 0 10 -4 18 -10 18 -5
0 -10 -7 -10 -16 0 -8 -4 -12 -10 -9 -5 3 -10 1 -10 -6 0 -7 -3 -10 -6 -6 -3
3 -1 13 4 23 7 12 6 25 -1 38 -23 46 -24 52 -14 74 12 25 1 44 -13 22 -8 -12
-10 -10 -10 7 0 12 -5 25 -11 29 -6 3 -9 19 -7 35 3 16 1 30 -4 31 -5 2 -13
35 -19 73 -5 39 -15 93 -21 121 -10 48 -8 99 7 172 5 21 3 32 -4 32 -16 0 -14
37 5 76 9 19 14 45 12 59 -6 31 0 32 12 3 8 -19 9 -18 4 10 -4 25 -2 32 10 32
17 0 21 17 7 38 -8 14 15 69 42 101 8 9 17 28 21 44 6 26 26 39 26 16 0 -5 4
-7 10 -4 5 3 10 11 10 16 0 6 -4 7 -10 4 -6 -3 -10 4 -9 17 0 13 3 17 6 11 8
-22 20 -14 27 17 4 22 11 30 26 30 17 0 20 5 17 35 -4 37 21 72 45 62 9 -4 8
-6 -3 -6 -9 -1 -22 -8 -29 -16 -10 -13 -9 -15 8 -15 25 0 44 31 36 57 -5 15
-4 15 5 3 5 -8 12 -12 13 -10 2 3 12 17 21 32 13 20 23 26 42 22 19 -3 23 -1
19 11 -4 10 3 18 20 25 17 6 24 14 20 25 -3 8 -1 15 5 15 6 0 11 -6 11 -12 0
-8 5 -6 10 4 6 10 18 14 30 11 11 -3 20 0 20 6 0 6 -10 11 -22 12 -13 0 -17 3
-10 6 6 2 10 9 7 13 -3 5 -1 11 5 15 5 3 10 1 10 -4 0 -6 5 -11 11 -11 5 0 8
4 5 9 -6 10 24 25 32 16 3 -3 0 -5 -6 -5 -7 0 -12 -4 -12 -8 0 -4 9 -8 20 -8
11 0 20 4 20 9 0 5 10 6 23 3 12 -3 16 -3 10 0 -12 5 -19 44 -9 44 2 0 13 3
23 6 17 5 17 5 1 -6 -10 -6 -18 -15 -18 -20 0 -8 56 12 117 42 11 6 26 7 33 3
9 -5 9 -2 2 11 -16 32 -24 76 -12 69 5 -3 10 -17 10 -31 0 -14 7 -27 15 -30 8
-4 12 -10 9 -15 -3 -5 2 -6 10 -3 8 3 12 12 9 20 -5 15 -3 16 39 19 15 1 25
-2 22 -7 -3 -5 6 -6 20 -2 16 4 26 2 26 -5 0 -6 -7 -8 -15 -5 -8 4 -15 1 -15
-5 0 -12 13 -13 50 -1 14 4 19 8 13 9 -7 1 -13 6 -13 12 0 6 9 8 20 4 11 -4
20 -2 20 4 0 6 7 11 16 11 14 0 14 -2 -1 -16 -9 -9 -13 -19 -10 -22 13 -14 57
47 63 89 l7 44 3 -47 c2 -36 7 -48 19 -48z m83 55 c-7 -9 -15 -13 -17 -11 -6
6 20 36 26 30 2 -2 -2 -10 -9 -19z m-456 -21 c9 -24 2 -26 -12 -4 -7 11 -8 20
-3 20 5 0 12 -7 15 -16z m211 -9 c0 -14 -3 -25 -7 -25 -10 0 -10 34 -1 43 3 4
7 7 7 7 1 0 1 -11 1 -25z m50 4 c10 -30 2 -32 -12 -3 -6 13 -7 24 -3 24 5 0
12 -9 15 -21z m62 -11 c-3 -8 -6 -5 -6 6 -1 11 2 17 5 13 3 -3 4 -12 1 -19z
m-467 -42 c0 -26 -6 -18 -14 19 -5 22 -4 26 4 15 5 -8 10 -24 10 -34z m104 8
c5 -14 4 -15 -9 -4 -17 14 -19 20 -6 20 5 0 12 -7 15 -16z m-47 -41 c-3 -10
-5 -2 -5 17 0 19 2 27 5 18 2 -10 2 -26 0 -35z m-37 -27 c0 -3 -4 -8 -10 -11
-5 -3 -10 -1 -10 4 0 6 5 11 10 11 6 0 10 -2 10 -4z m987 -18 c-3 -8 -6 -5 -6
6 -1 11 2 17 5 13 3 -3 4 -12 1 -19z m-1184 -93 c-3 -9 -8 -14 -10 -11 -3 3
-2 9 2 15 9 16 15 13 8 -4z m1373 -67 c-9 -12 -16 -19 -16 -15 0 11 24 47 28
42 2 -2 -3 -14 -12 -27z m-1446 18 c0 -2 -8 -10 -17 -17 -16 -13 -17 -12 -4 4
13 16 21 21 21 13z m860 -111 c-23 -70 -40 -104 -63 -125 -70 -65 -63 -25 19
117 37 63 69 112 71 109 3 -3 -9 -48 -27 -101z m734 -11 c3 -8 2 -12 -4 -9 -6
3 -10 10 -10 16 0 14 7 11 14 -7z m-1205 -42 c36 -26 78 -55 93 -65 15 -9 35
-29 45 -43 15 -23 15 -28 2 -38 -8 -6 -18 -19 -22 -28 -3 -10 -10 -18 -15 -18
-8 0 -77 51 -92 67 -6 7 25 -1 55 -13 22 -9 7 11 -93 125 -30 34 -51 61 -47
61 4 0 37 -21 74 -48z m649 21 c-8 -10 -41 -49 -74 -87 -37 -44 -50 -65 -36
-57 39 21 34 7 -12 -38 -44 -43 -73 -48 -63 -11 3 13 0 17 -9 13 -8 -3 -14 1
-14 11 0 9 -6 16 -14 16 -7 0 -19 6 -25 14 -10 11 -2 23 36 59 26 25 50 44 52
41 2 -2 -9 -27 -24 -56 l-29 -52 50 41 c116 95 200 150 162 106z m-476 -135
c-14 -14 -12 -15 -46 39 -37 60 -32 64 16 16 33 -33 40 -45 30 -55z m1018 82
c0 -5 -2 -10 -4 -10 -2 0 -12 -3 -22 -7 -16 -6 -17 -5 -4 10 17 19 30 22 30 7z
m57 -6 c-3 -3 -12 -4 -19 -1 -8 3 -5 6 6 6 11 1 17 -2 13 -5z m-24 -43 c3 -14
1 -18 -9 -14 -15 6 -18 16 -7 26 9 10 10 9 16 -12z m-831 -47 c129 -91 109
-289 -35 -354 -44 -20 -113 -18 -157 5 -43 22 -87 83 -100 136 -41 172 152
312 292 213z m-420 -25 c92 -22 137 -51 118 -74 -6 -8 -11 -32 -12 -55 l0 -42
-67 6 c-59 6 -334 26 -354 26 -5 0 -5 5 -2 10 3 6 52 11 108 11 140 2 247 13
225 23 -32 14 -19 24 20 15 96 -22 79 -4 -43 46 -143 58 -140 70 7 34z m758
15 c0 -3 -42 -25 -92 -49 -54 -26 -84 -45 -70 -45 12 0 22 -4 22 -10 0 -5 -10
-10 -22 -10 -13 0 -30 -5 -38 -10 -10 -7 15 -10 81 -10 108 0 281 -11 275 -17
-3 -3 -253 -30 -316 -34 -8 0 -1 -6 15 -12 l30 -12 -50 -5 -50 -5 103 -44 c57
-25 105 -48 107 -52 5 -7 -59 4 -144 26 -79 20 -82 19 -41 -15 34 -30 28 -40
-12 -19 -41 22 -29 -2 34 -68 35 -37 70 -77 78 -88 15 -19 15 -19 -15 -1 -100
63 -195 139 -195 157 0 10 5 19 10 19 6 0 10 6 10 14 0 23 24 37 39 23 10 -9
10 -6 0 12 -9 15 -10 25 -4 27 11 4 12 125 1 142 -10 16 15 29 119 61 102 31
125 35 125 25z m517 -36 c-3 -8 -6 -5 -6 6 -1 11 2 17 5 13 3 -3 4 -12 1 -19z
m89 -6 c-17 -16 -18 -16 -5 5 7 12 15 20 18 17 3 -2 -3 -12 -13 -22z m-22 -88
c4 -10 1 -14 -6 -12 -15 5 -23 28 -10 28 5 0 13 -7 16 -16z m-1924 -14 c0 -5
-5 -10 -11 -10 -5 0 -7 5 -4 10 3 6 8 10 11 10 2 0 4 -4 4 -10z m1925 -30 c3
-5 1 -10 -4 -10 -6 0 -11 5 -11 10 0 6 2 10 4 10 3 0 8 -4 11 -10z m-1230 -37
c0 -6 3 -15 8 -19 13 -14 7 -24 -20 -35 -52 -21 -205 -60 -210 -55 -3 3 34 24
83 47 72 33 85 43 69 49 -17 7 -15 9 15 18 40 12 55 10 55 -5z m31 -65 c4 -6
-2 -17 -12 -25 -18 -13 -17 -14 9 -8 56 14 30 -15 -125 -139 -27 -21 -48 -34
-48 -29 0 5 32 44 72 87 58 63 66 75 41 62 -51 -26 -51 -18 -3 24 49 43 55 46
66 28z m61 -69 c2 -8 -17 -36 -42 -64 -25 -27 -45 -46 -45 -42 0 4 14 35 30
68 29 56 52 72 57 38z m267 -23 c37 -49 32 -56 -9 -16 -19 19 -35 38 -35 42 0
18 19 6 44 -26z m-256 -52 c-28 -52 -51 -74 -64 -61 -17 16 67 134 86 122 5
-3 -6 -30 -22 -61z m231 24 c35 -80 36 -90 10 -86 -15 2 -32 18 -46 43 -29 52
-30 85 -2 85 14 0 25 -12 38 -42z m938 20 c-3 -8 -6 -5 -6 6 -1 11 2 17 5 13
3 -3 4 -12 1 -19z m-1099 -45 c-14 -65 -24 -72 -20 -15 4 58 9 75 21 68 5 -3
4 -26 -1 -53z m96 11 c12 -90 6 -103 -17 -39 l-22 60 -3 -52 c-3 -44 -6 -53
-21 -53 -23 0 -32 33 -22 80 4 23 13 35 23 35 9 0 20 4 24 8 18 18 32 4 38
-39z m-274 -17 c-20 -45 -23 -47 -61 -47 l-40 0 58 49 c32 27 59 47 61 46 1
-1 -7 -23 -18 -48z m140 -7 c0 -34 -3 -40 -21 -40 -13 0 -19 5 -16 13 12 27
32 67 35 67 1 0 2 -18 2 -40z m326 -10 c24 -17 44 -33 44 -35 0 -3 -11 -5 -24
-5 -15 0 -33 12 -50 35 -33 43 -27 44 30 5z m-46 -32 c0 -16 -29 -8 -40 11
-18 35 -11 45 15 21 14 -13 25 -27 25 -32z m-1193 -20 c-2 -13 -4 -3 -4 22 0
25 2 35 4 23 2 -13 2 -33 0 -45z m-60 30 c-3 -8 -6 -5 -6 6 -1 11 2 17 5 13 3
-3 4 -12 1 -19z m2115 -3 c3 -14 1 -28 -3 -31 -5 -3 -9 9 -9 25 0 38 6 40 12
6z m-2115 -47 c-3 -7 -5 -2 -5 12 0 14 2 19 5 13 2 -7 2 -19 0 -25z m973 -4
c0 -10 -7 -14 -17 -10 -10 2 -44 7 -76 11 -79 9 -64 21 22 17 55 -3 71 -7 71
-18z m-190 10 c-14 -2 -59 -9 -100 -15 -41 -6 -81 -16 -87 -21 -10 -8 -13 -85
-13 -324 0 -172 3 -315 8 -317 4 -3 45 3 92 14 116 25 144 24 257 -12 l97 -31
55 28 c79 39 210 45 311 15 39 -12 75 -19 81 -16 12 8 11 567 -1 601 -8 20 -6
24 10 24 20 0 20 -8 20 -340 l0 -340 -205 0 c-168 0 -207 -3 -211 -14 -3 -8
-19 -20 -35 -26 -27 -11 -34 -10 -80 19 l-50 31 -189 0 c-171 0 -189 2 -194
18 -2 9 -6 163 -8 342 l-3 325 21 3 c12 2 30 12 40 23 15 16 30 19 113 18 53
-1 85 -3 71 -5z m314 -9 c6 -17 -44 -36 -73 -28 -19 5 -28 23 -17 34 12 11 85
6 90 -6z m101 5 c-28 -12 -65 -12 -65 0 0 6 19 10 43 9 32 0 37 -2 22 -9z
m231 -14 c30 -22 15 -24 -61 -5 l-70 17 56 1 c33 1 63 -5 75 -13z m-496 -19
l85 -12 3 -316 2 -317 -85 29 c-96 33 -158 36 -250 14 -33 -8 -66 -15 -73 -15
-10 0 -12 64 -10 302 l3 302 50 11 c68 15 173 16 275 2z m428 -6 c45 -11 89
-24 97 -31 13 -10 15 -59 15 -301 0 -195 -3 -289 -10 -289 -6 0 -24 7 -39 15
-81 41 -254 37 -336 -9 l-45 -25 2 312 3 312 70 17 c92 22 143 21 243 -1z
m-1281 -38 c-3 -10 -5 -4 -5 12 0 17 2 24 5 18 2 -7 2 -21 0 -30z m2083 -33
c0 -5 -5 -10 -11 -10 -5 0 -7 5 -4 10 3 6 8 10 11 10 2 0 4 -4 4 -10z m643
-16 c8 -9 -11 -44 -23 -44 -6 0 -10 8 -10 18 0 27 18 41 33 26z m-656 -26 c-3
-8 -6 -5 -6 6 -1 11 2 17 5 13 3 -3 4 -12 1 -19z m-80 -60 c-3 -8 -6 -5 -6 6
-1 11 2 17 5 13 3 -3 4 -12 1 -19z m-2589 -26 c4 -24 -7 -29 -26 -10 -18 18
-15 40 6 36 9 -2 18 -13 20 -26z m3241 -16 c14 -17 11 -67 -4 -66 -16 2 -39
46 -32 64 8 20 21 20 36 2z m-14 -99 c6 -32 -8 -87 -22 -87 -15 0 -33 40 -48
103 -20 84 -20 83 25 47 26 -20 41 -42 45 -63z m-670 44 c-3 -12 -11 -21 -16
-21 -6 0 -7 6 -2 13 4 6 8 15 9 20 1 4 2 10 3 14 0 3 4 4 7 0 3 -3 3 -15 -1
-26z m-2465 -37 c0 -32 -18 -66 -31 -59 -10 7 -12 68 -2 78 15 16 33 5 33 -19z
m2516 -2 c-4 -3 -14 2 -24 12 -16 18 -16 18 6 6 13 -6 21 -14 18 -18z m-62
-38 c3 -8 2 -12 -4 -9 -6 3 -10 10 -10 16 0 14 7 11 14 -7z m-1865 -50 c4 3 8
-1 8 -9 0 -8 -4 -15 -9 -15 -4 0 -8 2 -8 4 0 2 -2 10 -3 18 -2 7 -2 10 0 5 3
-4 8 -5 12 -3z m2511 -68 c0 -3 -4 -8 -10 -11 -5 -3 -10 -1 -10 4 0 6 5 11 10
11 6 0 10 -2 10 -4z m-702 -42 c2 -1 -4 -4 -13 -8 -9 -3 -13 -2 -10 4 3 6 1
10 -4 10 -6 0 -11 5 -11 11 0 8 6 7 18 -2 9 -7 18 -14 20 -15z m-1567 -103
c20 -21 57 -54 83 -75 25 -21 46 -42 46 -47 0 -5 -9 0 -21 12 -13 13 -27 18
-42 14 -17 -5 -19 -4 -7 4 14 10 7 16 -15 11 -5 -1 -7 2 -3 6 10 9 -92 114
-110 114 -7 0 -11 4 -8 9 3 5 -2 15 -11 22 -15 12 -16 12 -10 -3 10 -29 0 -21
-16 12 -23 45 2 43 43 -3 19 -22 51 -56 71 -76z m1510 109 c5 0 9 -4 9 -9 0
-4 -10 -6 -22 -4 -28 4 -48 -8 -52 -32 -3 -20 -26 -34 -26 -17 0 20 53 73 67
68 8 -4 19 -6 24 -6z m-1638 -40 c3 -11 2 -20 -3 -20 -4 0 -10 9 -13 20 -3 11
-2 20 3 20 4 0 10 -9 13 -20z m1523 -68 c1 -15 -1 -21 -3 -14 -3 6 -9 12 -15
12 -6 0 -8 -7 -5 -14 4 -10 1 -13 -9 -9 -13 5 -11 10 7 29 12 13 23 24 23 24
1 0 2 -12 2 -28z m764 -51 c0 -17 -4 -33 -10 -36 -6 -4 -10 8 -10 29 0 20 5
36 10 36 6 0 10 -13 10 -29z m-863 -27 c-16 -14 -31 -24 -33 -21 -5 5 44 47
55 47 3 0 -7 -12 -22 -26z m793 -49 c0 -24 -4 -47 -10 -50 -6 -4 -10 15 -10
50 0 35 4 54 10 50 6 -3 10 -26 10 -50z m170 36 c0 -21 -26 -36 -36 -20 -9 15
3 39 21 39 8 0 15 -9 15 -19z m-2920 -31 c0 -32 -14 -40 -24 -14 -10 27 -7 44
9 44 10 0 15 -10 15 -30z m877 -41 c31 -18 76 -40 102 -50 l46 -18 -44 2 c-23
1 -38 3 -32 5 6 2 -10 15 -35 28 -25 13 -50 21 -56 18 -7 -4 -8 -2 -4 4 4 7 3
12 -3 12 -5 0 -12 -6 -14 -12 -3 -8 -6 -5 -6 6 -1 11 -6 16 -14 13 -8 -3 -14
1 -14 9 0 21 13 18 74 -17z m995 21 c-12 -5 -25 -16 -28 -25 -7 -18 -34 -20
-34 -3 0 6 3 9 6 6 3 -4 14 2 25 13 10 10 27 19 37 18 13 0 12 -2 -6 -9z
m-1802 -50 c0 -27 -4 -50 -10 -50 -5 0 -10 23 -10 50 0 28 5 50 10 50 6 0 10
-22 10 -50z m1727 4 c-3 -3 -12 -4 -19 -1 -8 3 -5 6 6 6 11 1 17 -2 13 -5z
m1112 -11 c-28 -37 -55 -53 -92 -53 -34 0 -38 3 -35 22 3 24 55 46 112 47 26
1 27 -1 15 -16z m-1179 -13 c-19 -11 -42 -19 -50 -19 -8 0 3 8 25 18 52 25 70
26 25 1z m-650 -35 c23 -8 55 -15 71 -15 16 0 29 -4 29 -10 0 -5 6 -8 13 -6 6
1 9 1 5 -1 -5 -3 -8 -12 -8 -21 1 -14 4 -13 19 4 21 26 61 22 79 -6 10 -16 9
-18 -3 -14 -8 4 -15 9 -15 14 0 13 -50 4 -67 -13 -10 -9 -17 -32 -17 -52 0
-19 -4 -35 -9 -35 -5 0 -6 23 -2 55 6 51 5 55 -14 55 -11 0 -23 5 -27 12 -5 7
-11 5 -21 -8 -14 -19 -14 -19 -11 1 2 17 -2 20 -27 18 -22 -2 -26 0 -15 7 12
8 11 10 -7 10 -13 0 -23 5 -23 10 0 13 0 13 50 -5z m536 -4 c-4 -5 0 -12 6
-15 7 -3 1 -3 -13 0 -15 3 -30 1 -33 -5 -4 -5 -13 -8 -20 -5 -7 3 -20 -1 -27
-8 -15 -14 -99 -18 -99 -6 0 11 47 21 70 15 11 -3 20 -2 20 2 0 4 19 12 43 18
59 14 59 14 53 4z m-1609 -27 c30 -19 19 -44 -19 -44 -50 0 -111 43 -91 64 9
9 86 -5 110 -20z m1313 -14 c0 -5 -4 -10 -9 -10 -6 0 -13 5 -16 10 -3 6 1 10
9 10 9 0 16 -4 16 -10z m94 -2 c-6 -10 -84 -7 -84 3 0 5 20 8 44 7 25 -1 43
-6 40 -10z m71 -58 c3 -5 1 -10 -4 -10 -6 0 -11 5 -11 10 0 6 2 10 4 10 3 0 8
-4 11 -10z m-135 -20 c0 -5 -5 -10 -11 -10 -5 0 -7 5 -4 10 3 6 8 10 11 10 2
0 4 -4 4 -10z m61 -13 c-10 -9 -11 -8 -5 6 3 10 9 15 12 12 3 -3 0 -11 -7 -18z
m-304 -9 c-3 -8 -6 -5 -6 6 -1 11 2 17 5 13 3 -3 4 -12 1 -19z m210 -10 c-3
-7 -5 -2 -5 12 0 14 2 19 5 13 2 -7 2 -19 0 -25z m1123 -39 c-7 -16 -21 -34
-31 -40 -30 -16 -24 33 8 72 23 27 29 30 31 15 2 -10 -2 -31 -8 -47z m-2036
-20 c22 -26 36 -69 22 -69 -28 0 -66 49 -66 85 0 23 16 18 44 -16z m518 -78
c53 -17 114 -33 135 -37 l38 -6 2 -71 c1 -39 -3 -77 -9 -84 -11 -14 -88 -18
-88 -5 0 14 -61 34 -98 31 -20 -2 -49 3 -64 10 -25 13 -26 17 -21 65 4 41 1
61 -15 93 -12 22 -28 43 -37 46 -8 4 -15 11 -15 17 0 6 17 2 38 -9 20 -10 81
-33 134 -50z m1342 23 c21 -8 10 -24 -17 -25 -16 -1 -14 -3 8 -8 54 -11 33
-43 -42 -66 -22 -6 -23 -4 -23 43 0 31 5 52 13 55 18 8 43 8 61 1z m-1633 -41
c0 -5 2 -27 3 -51 l2 -44 -35 7 c-74 14 -93 45 -35 55 l29 6 -28 7 c-15 4 -25
12 -22 17 7 12 85 14 86 3z m666 -62 c12 -9 23 -19 23 -23 0 -11 -38 -10 -44
1 -4 5 -27 12 -54 16 -26 3 -58 13 -72 21 -23 12 -18 13 50 7 43 -3 84 -13 97
-22z m153 12 c0 -5 -15 -17 -33 -27 l-32 -19 25 -8 c41 -12 85 -10 128 5 49
18 68 5 49 -33 -17 -32 -81 -55 -149 -52 -54 2 -58 0 -64 -24 -4 -15 -13 -25
-24 -25 -28 0 -36 21 -14 38 18 13 16 14 -16 9 -72 -11 -185 52 -152 85 8 8
24 7 56 -1 44 -11 116 -6 145 9 11 6 10 10 -7 19 -37 20 -25 31 33 31 30 0 55
-3 55 -7z m30 -33 c0 -5 -12 -10 -26 -10 -14 0 -23 4 -19 10 3 6 15 10 26 10
10 0 19 -4 19 -10z m-220 -131 c0 -24 -23 -21 -28 4 -2 10 3 17 12 17 10 0 16
-9 16 -21z m274 12 c7 -10 -22 -37 -30 -28 -9 8 3 37 15 37 5 0 12 -4 15 -9z
m63 -13 c22 -28 23 -48 3 -48 -29 0 -53 29 -39 46 14 17 24 18 36 2z m-387
-16 c0 -18 -47 -48 -58 -37 -3 3 0 16 6 30 14 30 52 35 52 7z m330 -118 c0 -8
-4 -12 -10 -9 -5 3 -10 13 -10 21 0 8 5 12 10 9 6 -3 10 -13 10 -21z m10 -54
c0 -5 -7 -10 -16 -10 -8 0 -12 5 -9 10 3 6 10 10 16 10 5 0 9 -4 9 -10z m-259
-53 c-1 -12 -15 -9 -19 4 -3 6 1 10 8 8 6 -3 11 -8 11 -12z"/>
<path d="M1860 2950 c0 -22 34 -28 46 -9 4 8 0 9 -15 4 -16 -5 -20 -3 -15 9 3
9 1 16 -5 16 -6 0 -11 -9 -11 -20z"/>
<path d="M1650 2941 c0 -5 9 -11 19 -14 14 -3 18 -1 14 9 -6 15 -33 19 -33 5z"/>
<path d="M1935 2930 c-18 -8 -17 -9 8 -9 16 -1 26 3 22 9 -3 6 -7 10 -8 9 -1
0 -11 -4 -22 -9z"/>
<path d="M2083 2911 c1 -16 5 -18 20 -10 18 10 40 0 59 -26 5 -7 8 -7 8 0 0
21 -18 37 -44 38 -14 1 -26 5 -26 10 0 4 -4 7 -9 7 -6 0 -9 -9 -8 -19z"/>
<path d="M1520 2880 c-9 -6 -10 -10 -3 -10 6 0 15 5 18 10 8 12 4 12 -15 0z"/>
<path d="M2540 2650 c0 -5 5 -10 10 -10 6 0 10 5 10 10 0 6 -4 10 -10 10 -5 0
-10 -4 -10 -10z"/>
<path d="M2726 2383 c-6 -14 -5 -15 5 -6 7 7 10 15 7 18 -3 3 -9 -2 -12 -12z"/>
<path d="M2741 2355 c1 -19 18 -51 18 -35 0 8 -4 22 -9 30 -5 8 -9 11 -9 5z"/>
<path d="M2768 2308 c-3 -7 3 -22 14 -32 18 -19 18 -19 7 12 -12 35 -15 38
-21 20z"/>
<path d="M2811 2194 c0 -11 3 -14 6 -6 3 7 2 16 -1 19 -3 4 -6 -2 -5 -13z"/>
<path d="M2831 1825 c0 -11 4 -29 9 -40 l9 -20 0 20 c0 11 -4 29 -9 40 l-9 20
0 -20z"/>
<path d="M915 1631 c-3 -5 -1 -12 5 -16 5 -3 10 1 10 9 0 18 -6 21 -15 7z"/>
<path d="M1450 1814 c0 -6 97 -389 106 -417 5 -15 14 -17 51 -15 l46 3 53 205
c30 113 54 211 54 218 0 7 -14 12 -35 12 -44 0 -47 -6 -76 -162 -12 -65 -25
-118 -28 -118 -4 0 -17 42 -30 93 -13 50 -30 113 -38 140 l-14 47 -44 0 c-25
0 -45 -3 -45 -6z"/>
<path d="M1953 1808 c-33 -36 -43 -63 -43 -113 0 -61 26 -96 95 -130 58 -29
73 -52 55 -85 -17 -32 -59 -26 -73 10 -10 26 -16 30 -49 30 -37 0 -38 -1 -38
-38 0 -47 22 -80 66 -98 72 -30 144 -11 167 44 27 64 29 81 13 135 -13 45 -22
56 -61 80 -25 15 -49 27 -54 27 -4 0 -16 9 -26 20 -15 16 -15 22 -5 35 17 21
36 19 53 -5 8 -12 31 -23 51 -27 34 -5 36 -4 36 22 0 50 -29 94 -69 105 -58
16 -95 12 -118 -12z"/>
<path d="M3294 3207 c3 -10 6 -40 6 -65 1 -38 3 -43 11 -29 11 18 4 71 -13 97
-8 12 -8 11 -4 -3z"/>
<path d="M404 3094 c-4 -22 -2 -40 5 -47 8 -8 11 1 11 36 0 56 -7 61 -16 11z"/>
<path d="M240 2863 c1 -35 8 -71 18 -90 l17 -32 -2 79 c-1 44 -4 84 -8 90 -15
24 -25 6 -25 -47z"/>
<path d="M3601 2466 c2 -2 15 -9 29 -15 24 -11 24 -11 6 3 -16 13 -49 24 -35
12z"/>
<path d="M3651 2388 c-1 -23 -10 -47 -25 -64 l-23 -28 20 -17 c21 -16 21 -17
3 -57 -15 -33 -28 -45 -62 -58 l-44 -17 0 -63 c0 -67 6 -76 79 -116 22 -12 31
-24 31 -42 0 -30 -7 -34 -62 -45 l-43 -9 38 -1 c56 -2 107 -52 109 -108 1 -24
4 -43 7 -43 11 0 61 175 61 212 0 33 -5 41 -38 62 -48 30 -92 81 -92 107 0 10
-4 19 -10 19 -5 0 -10 -13 -10 -30 0 -31 30 -70 54 -70 18 0 78 -68 73 -83 -8
-25 -34 -16 -102 34 -70 51 -81 68 -84 132 -1 24 5 30 43 46 32 14 50 31 67
63 26 46 59 63 59 31 0 -11 -14 -41 -31 -68 -29 -45 -29 -48 -7 -33 46 31 80
128 51 146 -14 9 -32 46 -48 96 l-13 41 -1 -37z"/>
<path d="M120 2370 c-8 -5 -12 -11 -10 -14 3 -2 14 2 24 10 22 15 10 19 -14 4z"/>
<path d="M86 2272 c-3 -22 -15 -51 -26 -65 -11 -14 -20 -36 -20 -50 0 -30 36
-85 70 -106 l25 -15 -21 24 c-33 38 -57 91 -47 101 16 16 39 0 57 -37 12 -27
29 -41 66 -57 l50 -21 -2 -50 c-1 -43 -6 -55 -37 -84 l-36 -34 32 16 c49 24
64 53 58 112 -5 50 -23 74 -55 74 -18 0 -51 32 -69 67 -9 18 -8 25 10 41 l20
20 -25 25 c-14 15 -26 38 -26 52 0 39 -17 30 -24 -13z"/>
<path d="M3290 2164 c0 -5 7 -55 17 -111 18 -111 27 -121 65 -78 12 14 31 25
43 25 12 0 30 6 40 14 16 12 17 16 6 30 -11 13 -11 19 -1 31 18 22 5 32 -71
60 -35 12 -72 26 -81 30 -10 4 -18 3 -18 -1z m135 -94 c4 -6 -7 -10 -24 -10
-17 0 -31 5 -31 10 0 6 11 10 24 10 14 0 28 -4 31 -10z"/>
<path d="M445 2087 c-11 -6 -45 -21 -75 -33 l-55 -23 -2 -50 -2 -49 39 -7 c21
-4 46 -15 56 -26 9 -10 24 -19 33 -19 13 0 19 20 29 102 7 56 9 105 5 109 -5
4 -17 3 -28 -4z m-45 -92 c0 -9 -9 -15 -25 -15 -26 0 -34 15 -12 23 23 10 37
7 37 -8z"/>
<path d="M160 2006 c0 -12 -11 -35 -25 -50 -30 -33 -31 -36 -6 -29 36 9 56 45
52 91 -2 22 -21 12 -21 -12z"/>
<path d="M61 1891 c-21 -16 -23 -24 -18 -67 5 -41 53 -173 68 -188 2 -3 5 13
5 34 1 22 9 51 18 65 21 32 71 58 98 49 14 -4 18 -2 14 5 -4 6 -22 11 -40 11
-39 0 -61 21 -53 50 6 25 2 25 -30 0 -49 -38 -77 -18 -43 30 24 34 16 38 -19
11z"/>
<path d="M2016 32 c-3 -5 1 -9 9 -9 8 0 12 4 9 9 -7 10 -11 10 -18 0z"/>
</g>
</svg>
